<svg width="16" height="16" viewBox="0 0 16 16" fill="none" xmlns="http://www.w3.org/2000/svg">
<path d="M6.57333 14.2867L6 14.6667L4 13.3333L2 14.6667V2H14V6.8C13.58 6.62 13.0933 6.62 12.6667 6.81333V3.33333H3.33333V12.1733L4 11.7333L6 13.0667L6.57333 12.6667V14.2867ZM7.90667 13.3067L12 9.22L13.3533 10.58L9.26667 14.6667H7.90667V13.3067ZM14.4733 9.46L13.82 10.1133L12.46 8.75333L13.1133 8.1L13.12 8.09333L13.1267 8.08667C13.24 7.98 13.4133 7.97333 13.54 8.06C13.56 8.06667 13.58 8.08667 13.5933 8.1L14.4733 8.98C14.6067 9.11333 14.6067 9.33333 14.4733 9.46ZM11.3333 6V4.66667H4.66667V6H11.3333ZM10 8.66667V7.33333H4.66667V8.66667H10Z" fill="#444054"/>
</svg>
