<svg width="16" height="16" viewBox="0 0 16 16" fill="none" xmlns="http://www.w3.org/2000/svg">
<path d="M7.3335 4.66667V6H8.66683V4.66667H7.3335ZM9.3335 11.3333V10H8.66683V7.33333H6.66683V8.66667H7.3335V10H6.66683V11.3333H9.3335ZM14.6668 8C14.6668 11.6667 11.6668 14.6667 8.00016 14.6667C4.3335 14.6667 1.3335 11.6667 1.3335 8C1.3335 4.33333 4.3335 1.33333 8.00016 1.33333C11.6668 1.33333 14.6668 4.33333 14.6668 8ZM13.3335 8C13.3335 5.05333 10.9468 2.66667 8.00016 2.66667C5.0535 2.66667 2.66683 5.05333 2.66683 8C2.66683 10.9467 5.0535 13.3333 8.00016 13.3333C10.9468 13.3333 13.3335 10.9467 13.3335 8Z" fill="#444054"/>
</svg>
